<svg width="24" height="24" viewBox="0 0 24 24" fill="none" xmlns="http://www.w3.org/2000/svg">
<path d="M21.9884 17.1081C21.81 18.4631 21.1446 19.7069 20.1162 20.6072C19.0879 21.5074 17.767 22.0026 16.4003 22.0001C8.46012 22.0001 2.00001 15.54 2.00001 7.59989C1.99756 6.23316 2.4927 4.91227 3.39297 3.88393C4.29323 2.85558 5.53704 2.19011 6.89209 2.0118C7.23475 1.96996 7.58175 2.04006 7.8813 2.21164C8.18084 2.38322 8.41686 2.64707 8.55412 2.96381L10.6662 7.67889V7.6909C10.7712 7.93335 10.8146 8.19806 10.7925 8.46138C10.7703 8.72471 10.6833 8.97844 10.5392 9.19992C10.5212 9.22692 10.5022 9.25192 10.4822 9.27692L8.40012 11.745C9.14913 13.267 10.7412 14.845 12.2832 15.596L14.7172 13.525C14.7411 13.5049 14.7662 13.4862 14.7922 13.469C15.0135 13.3214 15.2681 13.2313 15.533 13.2069C15.7979 13.1824 16.0647 13.2244 16.3093 13.329L16.3223 13.335L21.0333 15.446C21.3506 15.5828 21.6151 15.8186 21.7873 16.1182C21.9594 16.4178 22.03 16.765 21.9884 17.1081Z" fill="#AFAFAF"/>
</svg>
