<svg width="24" height="24" viewBox="0 0 24 24" fill="none" xmlns="http://www.w3.org/2000/svg">
<path d="M5.97949 18.0197L2 21.9977H22V2L5.97949 18.0197ZM15.3587 9.22788C15.4272 9.15956 15.5199 9.12119 15.6167 9.12119C15.7134 9.12119 15.8061 9.15956 15.8746 9.22788L16.7759 10.1291C16.844 10.1971 16.8823 10.2894 16.8823 10.3856C16.8824 10.4819 16.8442 10.5742 16.7762 10.6423C16.7082 10.7104 16.616 10.7487 16.5197 10.7488C16.4235 10.7488 16.3312 10.7107 16.2631 10.6427L15.3587 9.74143C15.3249 9.70767 15.2981 9.66758 15.2799 9.62345C15.2616 9.57933 15.2522 9.53203 15.2522 9.48427C15.2522 9.4365 15.2616 9.38921 15.2799 9.34508C15.2981 9.30096 15.3249 9.26164 15.3587 9.22788ZM14.1156 10.4741C14.1492 10.4403 14.1891 10.4134 14.2331 10.3951C14.2771 10.3768 14.3243 10.3673 14.372 10.3673C14.4197 10.3673 14.4669 10.3768 14.5109 10.3951C14.5549 10.4134 14.5948 10.4403 14.6284 10.4741L16.3043 12.1476C16.3381 12.1812 16.3649 12.2211 16.3832 12.2651C16.4016 12.3092 16.411 12.3563 16.411 12.404C16.411 12.4517 16.4016 12.4989 16.3832 12.5429C16.3649 12.5869 16.3381 12.6268 16.3043 12.6604C16.2709 12.6949 16.231 12.7224 16.1868 12.7413C16.1427 12.7601 16.0952 12.7699 16.0472 12.7702C15.9992 12.7704 15.9516 12.761 15.9073 12.7425C15.863 12.7241 15.8228 12.6969 15.7891 12.6627L14.1141 10.99C14.0458 10.9217 14.0074 10.829 14.0074 10.7324C14.0074 10.6358 14.0458 10.5432 14.1141 10.4749L14.1156 10.4741ZM12.8686 11.7172C12.9373 11.6493 13.03 11.6111 13.1266 11.6111C13.2232 11.6111 13.3158 11.6493 13.3845 11.7172L14.2858 12.62C14.3372 12.6706 14.3724 12.7354 14.3869 12.8062C14.4013 12.8769 14.3943 12.9503 14.3668 13.0171C14.3393 13.0838 14.2925 13.1408 14.2323 13.1808C14.1722 13.2208 14.1016 13.242 14.0294 13.2416C13.9813 13.2416 13.9337 13.2322 13.8893 13.2138C13.8449 13.1954 13.8046 13.1684 13.7706 13.1343L12.8694 12.2331C12.801 12.1645 12.7626 12.0716 12.7626 11.9748C12.7626 11.8779 12.801 11.785 12.8694 11.7164L12.8686 11.7172ZM11.6255 12.9634C11.6941 12.8955 11.7869 12.8576 11.8834 12.8579C11.9799 12.8582 12.0724 12.8967 12.1406 12.965L13.0403 13.8662C13.0741 13.9001 13.1009 13.9403 13.1191 13.9845C13.1373 14.0287 13.1467 14.0761 13.1466 14.1239C13.1465 14.1718 13.1371 14.2191 13.1187 14.2633C13.1003 14.3074 13.0734 14.3476 13.0395 14.3813C13.0057 14.4151 12.9655 14.4419 12.9213 14.4601C12.877 14.4783 12.8297 14.4877 12.7818 14.4876C12.734 14.4875 12.6866 14.4781 12.6425 14.4597C12.5983 14.4413 12.5582 14.4144 12.5244 14.3805L11.6247 13.4793C11.5564 13.4108 11.518 13.3181 11.518 13.2214C11.518 13.1246 11.5564 13.0319 11.6247 12.9634H11.6255ZM10.3793 14.2096C10.413 14.1756 10.4532 14.1486 10.4974 14.1302C10.5416 14.1118 10.589 14.1023 10.6369 14.1023C10.6847 14.1023 10.7322 14.1118 10.7764 14.1302C10.8206 14.1486 10.8607 14.1756 10.8944 14.2096L12.5679 15.8824C12.6032 15.9159 12.6313 15.9562 12.6508 16.0008C12.6702 16.0455 12.6805 16.0935 12.6811 16.1422C12.6818 16.1909 12.6726 16.2391 12.6543 16.2842C12.636 16.3293 12.6088 16.3703 12.5744 16.4047C12.54 16.4392 12.4991 16.4664 12.454 16.4848C12.409 16.5032 12.3607 16.5124 12.312 16.5119C12.2634 16.5113 12.2153 16.5011 12.1707 16.4817C12.126 16.4623 12.0857 16.4342 12.0521 16.399L10.3793 14.7247C10.311 14.6564 10.2727 14.5638 10.2727 14.4672C10.2727 14.3706 10.311 14.2779 10.3793 14.2096ZM8.83319 20.1322C8.79951 20.1662 8.75945 20.1933 8.71531 20.2117C8.67117 20.2302 8.62381 20.2398 8.57596 20.24C8.5281 20.2401 8.48069 20.2308 8.43644 20.2126C8.39218 20.1944 8.35196 20.1676 8.31808 20.1338L6.64455 18.461C6.61073 18.4273 6.58389 18.3872 6.56556 18.343C6.54724 18.2989 6.53779 18.2516 6.53775 18.2038C6.53772 18.156 6.5471 18.1086 6.56535 18.0645C6.58361 18.0203 6.61039 17.9801 6.64416 17.9463C6.67793 17.9125 6.71804 17.8857 6.76218 17.8673C6.80632 17.849 6.85365 17.8396 6.90144 17.8395C6.94924 17.8395 6.99657 17.8489 7.04075 17.8671C7.08492 17.8854 7.12506 17.9122 7.15888 17.9459L8.83241 19.6195C8.86624 19.653 8.89309 19.693 8.91141 19.737C8.92973 19.781 8.93916 19.8282 8.93916 19.8758C8.93916 19.9235 8.92973 19.9707 8.91141 20.0147C8.89309 20.0587 8.86624 20.0987 8.83241 20.1322H8.83319ZM9.30712 18.1145C9.23834 18.1836 9.14508 18.2226 9.04763 18.2233C8.9999 18.2234 8.95262 18.214 8.90858 18.1956C8.86455 18.1772 8.82465 18.1502 8.79124 18.1161L7.88765 17.2148C7.85373 17.1813 7.8268 17.1414 7.80842 17.0974C7.79004 17.0533 7.78058 17.0061 7.78058 16.9584C7.78058 16.9107 7.79004 16.8635 7.80842 16.8195C7.8268 16.7755 7.85373 16.7356 7.88765 16.702C7.92119 16.6677 7.9612 16.6404 8.00536 16.6217C8.04953 16.6029 8.09697 16.5931 8.14495 16.5928C8.19293 16.5925 8.24049 16.6018 8.28487 16.62C8.32926 16.6382 8.3696 16.665 8.40354 16.6989L9.30635 17.6017C9.34017 17.6353 9.36702 17.6753 9.38534 17.7193C9.40366 17.7633 9.41309 17.8105 9.41309 17.8581C9.41309 17.9058 9.40366 17.953 9.38534 17.997C9.36702 18.041 9.34017 18.0809 9.30635 18.1145H9.30712ZM10.5502 16.8699C10.5166 16.9039 10.4766 16.931 10.4324 16.9494C10.3883 16.9679 10.3409 16.9774 10.2931 16.9774C10.2452 16.9774 10.1978 16.9679 10.1537 16.9494C10.1095 16.931 10.0695 16.9039 10.0359 16.8699L9.13464 15.9686C9.06644 15.9002 9.0282 15.8075 9.02835 15.7109C9.02849 15.6143 9.06701 15.5217 9.13542 15.4535C9.20383 15.3853 9.29654 15.3471 9.39314 15.3472C9.48974 15.3474 9.58233 15.3859 9.65053 15.4543L10.5518 16.3555C10.6196 16.4239 10.6577 16.5164 10.6577 16.6127C10.6577 16.709 10.6196 16.8015 10.5518 16.8699H10.5502ZM18.1153 18.113H11.3792L18.1153 11.3769V18.113ZM18.0221 9.3988C17.9887 9.43289 17.9488 9.45994 17.9047 9.47835C17.8607 9.49677 17.8134 9.50618 17.7657 9.50602C17.6684 9.50604 17.5751 9.46748 17.5062 9.3988L16.6049 8.49755C16.5712 8.46378 16.5444 8.42369 16.5261 8.37956C16.5078 8.33544 16.4984 8.28815 16.4984 8.24039C16.4984 8.19263 16.5078 8.14533 16.5261 8.10121C16.5444 8.05708 16.5712 8.01699 16.6049 7.98322C16.6387 7.94945 16.6788 7.92266 16.7229 7.90438C16.767 7.8861 16.8143 7.8767 16.8621 7.8767C16.9099 7.8767 16.9571 7.8861 17.0013 7.90438C17.0454 7.92266 17.0855 7.94945 17.1193 7.98322L18.0205 8.88447C18.1635 9.02665 18.1642 9.2574 18.0221 9.3988ZM20.039 8.92642C19.9706 8.99436 19.8781 9.03242 19.7817 9.03227C19.6853 9.03213 19.5929 8.99379 19.5247 8.92565L17.8511 7.25289C17.7829 7.18448 17.7447 7.09178 17.7448 6.99518C17.745 6.89858 17.7835 6.80599 17.8519 6.73778C17.9203 6.66958 18.013 6.63134 18.1096 6.63149C18.2062 6.63163 18.2988 6.67015 18.367 6.73856L20.0406 8.41209C20.1827 8.55427 20.1804 8.78502 20.039 8.92642Z" fill="#AFAFAF"/>
</svg>
