<svg width="20" height="20" viewBox="0 0 20 20" fill="none" xmlns="http://www.w3.org/2000/svg">
<g clip-path="url(#clip0_62_585)">
<path d="M18 0H2C1.46957 0 0.960859 0.210714 0.585786 0.585786C0.210714 0.960859 0 1.46957 0 2V14C0 14.5304 0.210714 15.0391 0.585786 15.4142C0.960859 15.7893 1.46957 16 2 16H6L10 20L14 16H18C18.5304 16 19.0391 15.7893 19.4142 15.4142C19.7893 15.0391 20 14.5304 20 14V2C20 1.46957 19.7893 0.960859 19.4142 0.585786C19.0391 0.210714 18.5304 0 18 0ZM10 2.3C11.5 2.3 12.7 3.5 12.7 5C12.7 6.5 11.5 7.7 10 7.7C8.5 7.7 7.3 6.5 7.3 5C7.3 3.5 8.5 2.3 10 2.3ZM16 13H4V12.1C4 10.1 8 9 10 9C12 9 16 10.1 16 12.1V13Z" fill="#AFAFAF"/>
</g>
<defs>
<clipPath id="clip0_62_585">
<rect width="20" height="20" fill="white"/>
</clipPath>
</defs>
</svg>
