<svg width="101" height="100" viewBox="0 0 101 100" fill="none" xmlns="http://www.w3.org/2000/svg">
<path fill-rule="evenodd" clip-rule="evenodd" d="M50.7163 5.20831H50.283C46.5372 5.20831 43.4163 5.20831 40.9413 5.54165C38.3247 5.89165 35.9622 6.66665 34.0663 8.56248C32.1663 10.4625 31.3913 12.825 31.0413 15.4375C30.8038 17.2166 30.733 21.4625 30.7163 25.1041C22.2913 25.3833 17.2288 26.3666 13.7163 29.8833C8.83301 34.7625 8.83301 42.6208 8.83301 58.3333C8.83301 74.0458 8.83301 81.9041 13.7163 86.7833C18.5955 91.6666 26.4538 91.6666 42.1663 91.6666H58.833C74.5455 91.6666 82.4038 91.6666 87.283 86.7833C92.1663 81.9041 92.1663 74.0458 92.1663 58.3333C92.1663 42.6208 92.1663 34.7625 87.283 29.8833C83.7705 26.3666 78.708 25.3833 70.283 25.1083C70.2663 21.4625 70.1997 17.2166 69.958 15.4416C69.608 12.825 68.833 10.4625 66.933 8.56665C65.0372 6.66665 62.6747 5.89165 60.058 5.54165C57.583 5.20831 54.458 5.20831 50.7163 5.20831ZM64.033 25.0083C64.0122 21.4791 63.9538 17.6833 63.7663 16.2708C63.5038 14.35 63.058 13.525 62.5163 12.9833C61.9747 12.4416 61.1497 11.9958 59.2247 11.7333C57.2163 11.4666 54.5163 11.4583 50.4997 11.4583C46.483 11.4583 43.783 11.4666 41.7705 11.7375C39.8497 11.9958 39.0247 12.4416 38.483 12.9875C37.9413 13.5291 37.4955 14.35 37.233 16.2708C37.0455 17.6875 36.983 21.4791 36.9663 25.0083C38.5955 25 40.333 25 42.1663 25H58.833C60.6705 25 62.4038 25 64.033 25.0083ZM50.4997 38.5416C51.3285 38.5416 52.1233 38.8709 52.7094 39.4569C53.2954 40.043 53.6247 40.8378 53.6247 41.6666V41.7083C58.1622 42.85 61.958 46.4291 61.958 51.3875C61.958 52.2163 61.6288 53.0111 61.0427 53.5972C60.4567 54.1832 59.6618 54.5125 58.833 54.5125C58.0042 54.5125 57.2094 54.1832 56.6233 53.5972C56.0372 53.0111 55.708 52.2163 55.708 51.3875C55.708 49.7875 53.933 47.5708 50.4997 47.5708C47.0663 47.5708 45.2913 49.7875 45.2913 51.3875C45.2913 52.9875 47.0663 55.2083 50.4997 55.2083C56.2705 55.2083 61.958 59.2083 61.958 65.2791C61.958 70.2375 58.1622 73.8125 53.6247 74.9583V75C53.6247 75.8288 53.2954 76.6236 52.7094 77.2097C52.1233 77.7957 51.3285 78.125 50.4997 78.125C49.6709 78.125 48.876 77.7957 48.29 77.2097C47.7039 76.6236 47.3747 75.8288 47.3747 75V74.9583C42.8372 73.8166 39.0413 70.2375 39.0413 65.2791C39.0413 64.4503 39.3706 63.6555 39.9566 63.0694C40.5427 62.4834 41.3375 62.1541 42.1663 62.1541C42.9951 62.1541 43.79 62.4834 44.376 63.0694C44.9621 63.6555 45.2913 64.4503 45.2913 65.2791C45.2913 66.8791 47.0663 69.0958 50.4997 69.0958C53.933 69.0958 55.708 66.8791 55.708 65.2791C55.708 63.6791 53.933 61.4583 50.4997 61.4583C44.7288 61.4583 39.0413 57.4583 39.0413 51.3875C39.0413 46.4291 42.8372 42.85 47.3747 41.7083V41.6666C47.3747 40.8378 47.7039 40.043 48.29 39.4569C48.876 38.8709 49.6709 38.5416 50.4997 38.5416Z" fill="white"/>
<rect x="35.5" y="42" width="33" height="31" fill="#13223A"/>
<path fill-rule="evenodd" clip-rule="evenodd" d="M23.917 58C23.917 43.3188 35.8191 31.4167 50.5003 31.4167C65.1816 31.4167 77.0837 43.3188 77.0837 58C77.0837 72.6813 65.1816 84.5834 50.5003 84.5834C35.8191 84.5834 23.917 72.6813 23.917 58ZM45.667 43.5C45.0261 43.5 44.4114 43.7546 43.9582 44.2078C43.5049 44.6611 43.2503 45.2757 43.2503 45.9167V53.1667H40.8337C40.1927 53.1667 39.578 53.4213 39.1248 53.8745C38.6716 54.3277 38.417 54.9424 38.417 55.5834C38.417 56.2243 38.6716 56.839 39.1248 57.2922C39.578 57.7454 40.1927 58 40.8337 58H43.2503V60.4167H40.8337C40.1927 60.4167 39.578 60.6713 39.1248 61.1245C38.6716 61.5777 38.417 62.1924 38.417 62.8334C38.417 63.4743 38.6716 64.089 39.1248 64.5422C39.578 64.9954 40.1927 65.25 40.8337 65.25H43.2503V70.0834C43.2503 70.7243 43.5049 71.339 43.9582 71.7922C44.4114 72.2454 45.0261 72.5 45.667 72.5C46.3079 72.5 46.9226 72.2454 47.3758 71.7922C47.829 71.339 48.0837 70.7243 48.0837 70.0834V65.25H52.917C53.5579 65.25 54.1726 64.9954 54.6258 64.5422C55.079 64.089 55.3337 63.4743 55.3337 62.8334C55.3337 62.1924 55.079 61.5777 54.6258 61.1245C54.1726 60.6713 53.5579 60.4167 52.917 60.4167H48.0837V58H55.3337C57.2565 58 59.1005 57.2362 60.4602 55.8765C61.8198 54.5169 62.5837 52.6728 62.5837 50.75C62.5837 48.8272 61.8198 46.9831 60.4602 45.6235C59.1005 44.2639 57.2565 43.5 55.3337 43.5H45.667ZM55.3337 53.1667H48.0837V48.3334H55.3337C55.9746 48.3334 56.5893 48.588 57.0425 49.0412C57.4957 49.4944 57.7503 50.1091 57.7503 50.75C57.7503 51.391 57.4957 52.0056 57.0425 52.4589C56.5893 52.9121 55.9746 53.1667 55.3337 53.1667Z" fill="white"/>
</svg>
