<svg width="101" height="100" viewBox="0 0 101 100" fill="none" xmlns="http://www.w3.org/2000/svg">
<path d="M47.3753 8.67914C46.3512 8.90752 45.355 9.24703 44.4045 9.69164C27.8045 17.45 17.167 39.1458 17.167 57.7333C17.167 75.4 30.4295 89.9166 47.3753 91.5208V8.67914ZM53.6253 91.5208C70.5712 89.9166 83.8337 75.4041 83.8337 57.7375C83.8337 56.0458 83.7462 54.3291 83.5712 52.5958L53.6253 82.5458V91.5208ZM76.5837 29.9166C74.9845 26.9197 73.1156 24.0746 71.0003 21.4166L53.6253 38.7916V52.875L76.5837 29.9166ZM66.7837 16.7916C63.7987 13.8841 60.3572 11.4857 56.5962 9.69164C55.6457 9.24703 54.6495 8.90752 53.6253 8.67914V29.9541L66.7837 16.7916ZM79.4003 35.9333L53.6253 61.7125V73.7041L81.7503 45.5791L82.3003 45.0291C81.5666 41.9278 80.5972 38.887 79.4003 35.9333Z" fill="white"/>
</svg>
