<svg width="101" height="100" viewBox="0 0 101 100" fill="none" xmlns="http://www.w3.org/2000/svg">
<path d="M4.66699 96.6666V82.6666C4.66699 79.8333 5.27533 77.2283 6.49199 74.8516C7.70866 72.4749 9.32255 70.6633 11.3337 69.4166C15.6392 66.8333 20.0142 64.895 24.4587 63.6016C28.9031 62.3083 33.417 61.6633 38.0003 61.6666C42.5837 61.6666 47.0975 62.3133 51.542 63.6066C55.9864 64.9 60.3614 66.8366 64.667 69.4166C66.6809 70.6666 68.2962 72.4799 69.5128 74.8566C70.7295 77.2333 71.3364 79.8366 71.3337 82.6666V96.6666H4.66699ZM79.667 96.6666V81.6666C79.667 77.9999 78.8156 74.4783 77.1128 71.1016C75.41 67.7249 72.9975 64.83 69.8753 62.4166C73.417 62.9166 76.7503 63.7716 79.8753 64.9816C83.0003 66.1916 85.917 67.67 88.6253 69.4166C91.1253 71.0833 93.035 72.9366 94.3545 74.9766C95.6739 77.0166 96.3337 79.2466 96.3337 81.6666V96.6666H79.667ZM38.0003 56.6666C33.417 56.6666 29.4934 54.7083 26.2295 50.7916C22.9656 46.875 21.3337 42.1667 21.3337 36.6667C21.3337 31.1667 22.9656 26.4583 26.2295 22.5417C29.4934 18.625 33.417 16.6667 38.0003 16.6667C42.5837 16.6667 46.5073 18.625 49.7712 22.5417C53.035 26.4583 54.667 31.1667 54.667 36.6667C54.667 42.1667 53.035 46.875 49.7712 50.7916C46.5073 54.7083 42.5837 56.6666 38.0003 56.6666ZM79.667 36.6667C79.667 42.1667 78.035 46.875 74.7712 50.7916C71.5073 54.7083 67.5837 56.6666 63.0003 56.6666C62.2364 56.6666 61.2642 56.5616 60.0837 56.3516C58.9031 56.1416 57.9309 55.9133 57.167 55.6666C59.042 53 60.4837 50.0416 61.492 46.7916C62.5003 43.5417 63.0031 40.1667 63.0003 36.6667C63.0003 33.1667 62.4975 29.7917 61.492 26.5417C60.4864 23.2917 59.0448 20.3334 57.167 17.6667C58.1392 17.25 59.1114 16.9784 60.0837 16.8517C61.0559 16.725 62.0281 16.6634 63.0003 16.6667C67.5837 16.6667 71.5073 18.625 74.7712 22.5417C78.035 26.4583 79.667 31.1667 79.667 36.6667Z" fill="white"/>
</svg>
