<svg width="101" height="100" viewBox="0 0 101 100" fill="none" xmlns="http://www.w3.org/2000/svg">
<path d="M85.1582 16.5918L51.9746 5.2832C51.5742 5.14648 51.0371 5.07812 50.5 5.07812C49.9629 5.07812 49.4258 5.14648 49.0254 5.2832L15.8418 16.5918C15.0313 16.8652 14.3672 17.8027 14.3672 18.6621V65.7715C14.3672 66.6309 14.9238 67.7637 15.5977 68.3008L49.2598 94.5312C49.6016 94.7949 50.041 94.9316 50.4902 94.9316C50.9395 94.9316 51.3887 94.7949 51.7207 94.5312L85.3828 68.3008C86.0566 67.7734 86.6133 66.6406 86.6133 65.7715V18.6621C86.6328 17.8027 85.9688 16.875 85.1582 16.5918ZM68.3223 33.2715L47.5606 61.8555C47.4146 62.0552 47.2235 62.2178 47.0029 62.3298C46.7824 62.4418 46.5384 62.5002 46.291 62.5002C46.0436 62.5002 45.7997 62.4418 45.5791 62.3298C45.3585 62.2178 45.1674 62.0552 45.0215 61.8555L32.6777 44.8633C32.3066 44.3457 32.6777 43.623 33.3125 43.623H38.7031C39.2012 43.623 39.6797 43.8672 39.9727 44.2676L46.291 52.959L61.0273 32.666C61.3203 32.2656 61.7891 32.0215 62.2969 32.0215H67.6875C68.3223 32.0312 68.6934 32.7539 68.3223 33.2715Z" fill="white"/>
</svg>
