<svg width="101" height="100" viewBox="0 0 101 100" fill="none" xmlns="http://www.w3.org/2000/svg">
<path d="M29.6663 95.8334L21.333 33.3334H79.6663L71.333 95.8334H29.6663ZM50.4997 66.6667C53.9719 66.6667 56.9233 65.4514 59.3538 63.0209C61.7844 60.5903 62.9997 57.6389 62.9997 54.1667V45.8334H54.6663V54.1667C54.6663 55.3472 54.2663 56.3375 53.4663 57.1375C52.6663 57.9375 51.6775 58.3361 50.4997 58.3334C49.3191 58.3334 48.3288 57.9333 47.5288 57.1334C46.7288 56.3334 46.3302 55.3445 46.333 54.1667V45.8334H37.9997V54.1667C37.9997 57.6389 39.215 60.5903 41.6455 63.0209C44.0761 65.4514 47.0275 66.6667 50.4997 66.6667ZM62.9997 29.1667C61.2636 29.1667 59.7872 28.5584 58.5705 27.3417C57.3538 26.125 56.7469 24.65 56.7497 22.9167C56.7497 21.1806 57.358 19.7042 58.5747 18.4875C59.7913 17.2709 61.2663 16.6639 62.9997 16.6667C64.7358 16.6667 66.2122 17.275 67.4288 18.4917C68.6455 19.7084 69.2524 21.1834 69.2497 22.9167C69.2497 24.6528 68.6413 26.1292 67.4247 27.3459C66.208 28.5625 64.733 29.1695 62.9997 29.1667ZM42.1663 25C39.2497 25 36.7844 23.9931 34.7705 21.9792C32.7566 19.9653 31.7497 17.5 31.7497 14.5834C31.7497 11.6667 32.7566 9.20141 34.7705 7.18752C36.7844 5.17363 39.2497 4.16669 42.1663 4.16669C45.083 4.16669 47.5483 5.17363 49.5622 7.18752C51.5761 9.20141 52.583 11.6667 52.583 14.5834C52.583 17.5 51.5761 19.9653 49.5622 21.9792C47.5483 23.9931 45.083 25 42.1663 25Z" fill="white"/>
</svg>
