<svg width="12" height="12" viewBox="0 0 12 12" fill="none" xmlns="http://www.w3.org/2000/svg">
<path d="M5.3 8.1L8.825 4.575L8.125 3.875L5.3 6.7L3.875 5.275L3.175 5.975L5.3 8.1ZM2.5 10.5C2.225 10.5 1.9895 10.402 1.7935 10.206C1.5975 10.01 1.49967 9.77467 1.5 9.5V2.5C1.5 2.225 1.598 1.9895 1.794 1.7935C1.99 1.5975 2.22533 1.49967 2.5 1.5H9.5C9.775 1.5 10.0105 1.598 10.2065 1.794C10.4025 1.99 10.5003 2.22533 10.5 2.5V9.5C10.5 9.775 10.402 10.0105 10.206 10.2065C10.01 10.4025 9.77467 10.5003 9.5 10.5H2.5Z" fill="white"/>
</svg>
