<svg width="170" height="52" viewBox="0 0 170 52" fill="none" xmlns="http://www.w3.org/2000/svg">
<path d="M68.36 5.19C68.3267 4.97 68.21 4.8 68.01 4.68C67.81 4.55333 67.5467 4.49 67.22 4.49C66.9933 4.49 66.7967 4.53 66.63 4.61C66.4633 4.69 66.38 4.81 66.38 4.97C66.38 5.13 66.4733 5.25 66.66 5.33C66.8467 5.41 67.12 5.49667 67.48 5.59L68.13 5.75C68.4167 5.82333 68.6867 5.90333 68.94 5.99C69.2 6.07 69.4267 6.18333 69.62 6.33C69.8133 6.47667 69.9667 6.66667 70.08 6.9C70.1933 7.12667 70.2567 7.42333 70.27 7.79C70.27 8.21 70.1867 8.56667 70.02 8.86C69.86 9.14667 69.6467 9.38 69.38 9.56C69.1133 9.74 68.81 9.87333 68.47 9.96C68.1367 10.04 67.7967 10.08 67.45 10.08C67.1167 10.08 66.78 10.0433 66.44 9.97C66.1067 9.89667 65.79 9.76333 65.49 9.57C65.1967 9.37667 64.9467 9.12 64.74 8.8C64.54 8.47333 64.4167 8.07667 64.37 7.61H66.19C66.2567 7.89667 66.4133 8.1 66.66 8.22C66.9133 8.34 67.2067 8.4 67.54 8.4C67.64 8.4 67.7433 8.39333 67.85 8.38C67.9567 8.36667 68.0533 8.34333 68.14 8.31C68.2333 8.27 68.3067 8.21667 68.36 8.15C68.42 8.08333 68.45 7.99333 68.45 7.88C68.45 7.73333 68.3867 7.62333 68.26 7.55C68.14 7.47 67.9667 7.41 67.74 7.37L67.18 7.25C66.8 7.17 66.4433 7.07333 66.11 6.96C65.7767 6.84667 65.5067 6.71333 65.3 6.56C65.08 6.39333 64.9067 6.18333 64.78 5.93C64.6533 5.67667 64.59 5.35333 64.59 4.96V4.94C64.6167 4.54 64.7167 4.20667 64.89 3.94C65.0633 3.67333 65.28 3.45667 65.54 3.29C65.8333 3.10333 66.14 2.98 66.46 2.92C66.7867 2.86 67.13 2.83 67.49 2.83C67.79 2.83667 68.08 2.88333 68.36 2.97C68.6467 3.05 68.9 3.16667 69.12 3.32C69.4 3.51333 69.6233 3.76667 69.79 4.08C69.9567 4.38667 70.0633 4.75667 70.11 5.19H68.36ZM94.6027 4.6V2.92H100.623V4.6H98.5127V10H96.7027V4.6H94.6027ZM125.863 10H123.923L126.763 2.92H128.603L131.413 10H129.463L129.113 9H126.223L125.863 10ZM128.543 7.37L127.683 4.94L126.793 7.37H128.543ZM159.025 2.92C159.345 2.92 159.672 2.95 160.005 3.01C160.345 3.06333 160.652 3.17333 160.925 3.34C161.199 3.50667 161.425 3.74333 161.605 4.05C161.785 4.35667 161.879 4.75667 161.885 5.25C161.872 5.71667 161.759 6.13333 161.545 6.5C161.339 6.86667 160.989 7.14333 160.495 7.33L162.135 10H160.075L158.715 7.61H157.845V10H156.035V2.92H159.025ZM159.035 6.02C159.375 6.02 159.635 5.95667 159.815 5.83C160.002 5.70333 160.095 5.52 160.095 5.28C160.095 5.13333 160.069 5.01667 160.015 4.93C159.962 4.84333 159.889 4.77667 159.795 4.73C159.702 4.67667 159.592 4.64333 159.465 4.63C159.339 4.61 159.205 4.6 159.065 4.6H157.845V6.02H159.035Z" fill="white"/>
<path d="M69.57 45.23H73.73V41.93H74.38V49H73.73V45.83H69.57V49H68.92V41.93H69.57V45.23ZM79.6047 48.24C79.3514 48.5467 79.0614 48.76 78.7347 48.88C78.4147 49 78.0614 49.06 77.6747 49.06C77.4414 49.06 77.2147 49.0333 76.9947 48.98C76.7814 48.92 76.588 48.8267 76.4147 48.7C76.2414 48.5733 76.1014 48.4133 75.9947 48.22C75.8947 48.02 75.8447 47.7967 75.8447 47.55C75.8447 47.25 75.9014 47 76.0147 46.8C76.128 46.6 76.2747 46.44 76.4547 46.32C76.6414 46.2 76.8547 46.1167 77.0947 46.07C77.3347 46.0167 77.5847 45.99 77.8447 45.99H79.5747C79.5747 45.75 79.548 45.5233 79.4947 45.31C79.448 45.0967 79.368 44.91 79.2547 44.75C79.1414 44.59 78.9914 44.4633 78.8047 44.37C78.6247 44.2767 78.4014 44.23 78.1347 44.23C78.008 44.23 77.878 44.24 77.7447 44.26C77.618 44.28 77.4947 44.3133 77.3747 44.36C77.2614 44.4067 77.1547 44.4733 77.0547 44.56C76.9614 44.64 76.8847 44.74 76.8247 44.86H76.1047C76.1647 44.64 76.2647 44.4567 76.4047 44.31C76.5447 44.1567 76.708 44.0333 76.8947 43.94C77.088 43.84 77.2914 43.77 77.5047 43.73C77.7247 43.69 77.9414 43.67 78.1547 43.67C78.5414 43.67 78.868 43.7333 79.1347 43.86C79.4014 43.9867 79.6147 44.1633 79.7747 44.39C79.9414 44.61 80.058 44.87 80.1247 45.17C80.198 45.47 80.2347 45.7933 80.2347 46.14V49H79.6947L79.6047 48.24ZM78.1847 46.52C78.0114 46.52 77.8247 46.5267 77.6247 46.54C77.4314 46.5533 77.2514 46.5933 77.0847 46.66C76.918 46.72 76.778 46.8167 76.6647 46.95C76.558 47.0767 76.5047 47.2533 76.5047 47.48C76.5047 47.66 76.538 47.8133 76.6047 47.94C76.678 48.0667 76.7714 48.1733 76.8847 48.26C77.0047 48.3467 77.138 48.41 77.2847 48.45C77.438 48.49 77.5947 48.51 77.7547 48.51C78.0147 48.51 78.2547 48.4767 78.4747 48.41C78.7014 48.3433 78.8947 48.2433 79.0547 48.11C79.2214 47.97 79.348 47.8 79.4347 47.6C79.528 47.3933 79.5747 47.1533 79.5747 46.88V46.52H78.1847ZM85.4995 43.73V44.28H83.6095V49H82.9495V44.28H81.0595V43.73H85.4995ZM90.2072 49H89.5572V46.96H88.1372L86.7872 49H86.0072L87.4572 46.87C87.0439 46.7967 86.7105 46.6333 86.4572 46.38C86.2039 46.12 86.0772 45.7733 86.0772 45.34C86.0772 45 86.1339 44.7267 86.2472 44.52C86.3605 44.3133 86.5139 44.1467 86.7072 44.02C86.8939 43.9 87.1039 43.8233 87.3372 43.79C87.5772 43.75 87.8372 43.73 88.1172 43.73H90.2072V49ZM89.5572 44.28H88.2372C88.0239 44.28 87.8205 44.29 87.6272 44.31C87.4339 44.33 87.2772 44.3767 87.1572 44.45C87.0439 44.5233 86.9439 44.63 86.8572 44.77C86.7772 44.9033 86.7372 45.0767 86.7372 45.29C86.7372 45.4767 86.7672 45.64 86.8272 45.78C86.8939 45.9133 86.9805 46.02 87.0872 46.1C87.1872 46.1733 87.2939 46.2333 87.4072 46.28C87.5272 46.32 87.6505 46.35 87.7772 46.37C87.9105 46.39 88.0405 46.4033 88.1672 46.41C88.2939 46.41 88.4172 46.41 88.5372 46.41H89.5572V44.28ZM94.3497 49V46.63H93.3197L91.8697 49H91.1197L92.8197 46.23L91.2697 43.73H91.9997L93.4197 46.08H94.3497V43.73H95.0097V46.08H95.9397L97.3597 43.73H98.0897L96.5397 46.23L98.2497 49H97.4997L96.0397 46.63H95.0097V49H94.3497ZM99.1595 49V43.73H99.8195V46.14H102.799V43.73H103.459V49H102.799V46.69H99.8195V49H99.1595ZM109.572 49V43.73H110.222V49H109.572ZM104.902 43.73H105.572V45.82H106.492C106.758 45.82 107.025 45.8367 107.292 45.87C107.558 45.8967 107.795 45.9633 108.002 46.07C108.208 46.17 108.375 46.3233 108.502 46.53C108.635 46.7367 108.702 47 108.702 47.32C108.702 47.6333 108.648 47.8967 108.542 48.11C108.435 48.3233 108.288 48.4967 108.102 48.63C107.922 48.7567 107.708 48.85 107.462 48.91C107.215 48.97 106.952 49 106.672 49H104.902V43.73ZM106.352 48.45C106.558 48.45 106.762 48.44 106.962 48.42C107.162 48.4 107.342 48.3533 107.502 48.28C107.662 48.2067 107.788 48.0967 107.882 47.95C107.982 47.8033 108.032 47.6033 108.032 47.35C108.032 47.13 107.985 46.9567 107.892 46.83C107.805 46.6967 107.688 46.5967 107.542 46.53C107.395 46.4633 107.228 46.42 107.042 46.4C106.862 46.38 106.682 46.37 106.502 46.37H105.572V48.45H106.352ZM112.109 46.58C112.123 46.86 112.169 47.1167 112.249 47.35C112.336 47.5833 112.456 47.7867 112.609 47.96C112.763 48.1267 112.949 48.26 113.169 48.36C113.396 48.4533 113.659 48.5 113.959 48.5C114.099 48.5 114.239 48.4867 114.379 48.46C114.526 48.4333 114.663 48.3933 114.789 48.34C114.923 48.28 115.043 48.2033 115.149 48.11C115.256 48.0167 115.339 47.9 115.399 47.76H116.089C116.016 47.9933 115.903 48.1933 115.749 48.36C115.603 48.5267 115.433 48.6633 115.239 48.77C115.046 48.87 114.836 48.9433 114.609 48.99C114.383 49.0367 114.156 49.06 113.929 49.06C113.516 49.06 113.153 48.9933 112.839 48.86C112.533 48.7267 112.276 48.5433 112.069 48.31C111.863 48.07 111.709 47.7867 111.609 47.46C111.509 47.1267 111.459 46.7633 111.459 46.37C111.459 45.97 111.513 45.6033 111.619 45.27C111.726 44.9367 111.883 44.6533 112.089 44.42C112.303 44.18 112.563 43.9967 112.869 43.87C113.183 43.7367 113.539 43.67 113.939 43.67C114.359 43.67 114.713 43.7533 114.999 43.92C115.293 44.0867 115.529 44.3067 115.709 44.58C115.889 44.8467 116.016 45.1567 116.089 45.51C116.169 45.8567 116.203 46.2133 116.189 46.58H112.109ZM115.519 46.03C115.513 45.79 115.473 45.56 115.399 45.34C115.333 45.12 115.229 44.93 115.089 44.77C114.956 44.6033 114.786 44.4733 114.579 44.38C114.373 44.28 114.133 44.23 113.859 44.23C113.586 44.23 113.343 44.28 113.129 44.38C112.923 44.48 112.746 44.6133 112.599 44.78C112.453 44.9467 112.339 45.14 112.259 45.36C112.179 45.5733 112.133 45.7967 112.119 46.03H115.519ZM120.126 49V43.73H124.456V49H123.796V44.28H120.786V49H120.126ZM128.188 43.67C128.601 43.67 128.961 43.7367 129.268 43.87C129.581 44.0033 129.841 44.19 130.048 44.43C130.261 44.67 130.421 44.9567 130.528 45.29C130.634 45.6167 130.688 45.9767 130.688 46.37C130.688 46.7633 130.634 47.1267 130.528 47.46C130.421 47.7867 130.261 48.07 130.048 48.31C129.841 48.5433 129.581 48.7267 129.268 48.86C128.961 48.9933 128.601 49.06 128.188 49.06C127.774 49.06 127.411 48.9933 127.098 48.86C126.791 48.7267 126.531 48.5433 126.318 48.31C126.111 48.07 125.954 47.7867 125.848 47.46C125.748 47.1267 125.698 46.7633 125.698 46.37C125.698 45.9767 125.748 45.6167 125.848 45.29C125.954 44.9567 126.111 44.67 126.318 44.43C126.531 44.19 126.791 44.0033 127.098 43.87C127.411 43.7367 127.774 43.67 128.188 43.67ZM128.188 48.5C128.508 48.5 128.784 48.4467 129.018 48.34C129.251 48.2267 129.441 48.0733 129.588 47.88C129.741 47.6867 129.851 47.46 129.918 47.2C129.991 46.94 130.028 46.6633 130.028 46.37C130.028 46.0767 129.991 45.8 129.918 45.54C129.851 45.28 129.741 45.0533 129.588 44.86C129.441 44.6667 129.251 44.5133 129.018 44.4C128.784 44.2867 128.508 44.23 128.188 44.23C127.868 44.23 127.591 44.2867 127.358 44.4C127.124 44.5133 126.931 44.6667 126.778 44.86C126.631 45.0533 126.521 45.28 126.448 45.54C126.381 45.8 126.348 46.0767 126.348 46.37C126.348 46.6633 126.381 46.94 126.448 47.2C126.521 47.46 126.631 47.6867 126.778 47.88C126.931 48.0733 127.124 48.2267 127.358 48.34C127.591 48.4467 127.868 48.5 128.188 48.5ZM135.763 43.73V44.28H133.873V49H133.213V44.28H131.323V43.73H135.763ZM138.891 43.67C139.304 43.67 139.664 43.7367 139.971 43.87C140.284 44.0033 140.544 44.19 140.751 44.43C140.964 44.67 141.124 44.9567 141.231 45.29C141.338 45.6167 141.391 45.9767 141.391 46.37C141.391 46.7633 141.338 47.1267 141.231 47.46C141.124 47.7867 140.964 48.07 140.751 48.31C140.544 48.5433 140.284 48.7267 139.971 48.86C139.664 48.9933 139.304 49.06 138.891 49.06C138.478 49.06 138.114 48.9933 137.801 48.86C137.494 48.7267 137.234 48.5433 137.021 48.31C136.814 48.07 136.658 47.7867 136.551 47.46C136.451 47.1267 136.401 46.7633 136.401 46.37C136.401 45.9767 136.451 45.6167 136.551 45.29C136.658 44.9567 136.814 44.67 137.021 44.43C137.234 44.19 137.494 44.0033 137.801 43.87C138.114 43.7367 138.478 43.67 138.891 43.67ZM138.891 48.5C139.211 48.5 139.488 48.4467 139.721 48.34C139.954 48.2267 140.144 48.0733 140.291 47.88C140.444 47.6867 140.554 47.46 140.621 47.2C140.694 46.94 140.731 46.6633 140.731 46.37C140.731 46.0767 140.694 45.8 140.621 45.54C140.554 45.28 140.444 45.0533 140.291 44.86C140.144 44.6667 139.954 44.5133 139.721 44.4C139.488 44.2867 139.211 44.23 138.891 44.23C138.571 44.23 138.294 44.2867 138.061 44.4C137.828 44.5133 137.634 44.6667 137.481 44.86C137.334 45.0533 137.224 45.28 137.151 45.54C137.084 45.8 137.051 46.0767 137.051 46.37C137.051 46.6633 137.084 46.94 137.151 47.2C137.224 47.46 137.334 47.6867 137.481 47.88C137.634 48.0733 137.828 48.2267 138.061 48.34C138.294 48.4467 138.571 48.5 138.891 48.5ZM146.817 43.73V49H146.157V44.28H143.877C143.871 44.4667 143.864 44.6567 143.857 44.85L143.807 45.96C143.801 46.1467 143.794 46.3367 143.787 46.53C143.774 46.7033 143.757 46.8867 143.737 47.08C143.724 47.2733 143.697 47.4667 143.657 47.66C143.617 47.8467 143.561 48.0267 143.487 48.2C143.414 48.3733 143.314 48.5233 143.187 48.65C143.027 48.81 142.861 48.9167 142.687 48.97C142.514 49.0167 142.317 49.04 142.097 49.04V48.42C142.297 48.4067 142.461 48.35 142.587 48.25C142.721 48.1433 142.824 48.0033 142.897 47.83C142.984 47.6167 143.041 47.3833 143.067 47.13C143.101 46.87 143.124 46.65 143.137 46.47C143.171 46.01 143.191 45.5533 143.197 45.1C143.211 44.6467 143.224 44.19 143.237 43.73H146.817ZM148.261 49V43.73H148.921V46.09H150.051L151.681 43.73H152.411L150.641 46.26L152.581 49H151.821L150.121 46.64H148.921V49H148.261ZM154.337 49H153.417V43.73H154.077V48.27L156.967 43.73H157.877V49H157.217V44.5L154.337 49Z" fill="white"/>
<path d="M67.81 25.744C67.81 26.524 67.9053 27.278 68.096 28.006C68.304 28.734 68.6073 29.3753 69.006 29.93C69.422 30.4847 69.942 30.9353 70.566 31.282C71.2073 31.6113 71.97 31.776 72.854 31.776C73.9633 31.776 74.8733 31.5333 75.584 31.048C76.312 30.5453 76.7627 29.852 76.936 28.968H80.576C80.4893 29.9907 80.2207 30.892 79.77 31.672C79.3193 32.4347 78.7387 33.076 78.028 33.596C77.3173 34.116 76.5113 34.506 75.61 34.766C74.7087 35.026 73.7727 35.156 72.802 35.156C71.3633 35.156 70.0893 34.922 68.98 34.454C67.888 33.986 66.9607 33.336 66.198 32.504C65.4527 31.672 64.8893 30.684 64.508 29.54C64.1267 28.396 63.936 27.1393 63.936 25.77C63.936 24.4353 64.1267 23.196 64.508 22.052C64.9067 20.8907 65.4873 19.894 66.25 19.062C67.0127 18.2127 67.94 17.554 69.032 17.086C70.1413 16.6007 71.4153 16.358 72.854 16.358C73.8593 16.358 74.804 16.4793 75.688 16.722C76.572 16.9647 77.3607 17.3373 78.054 17.84C78.7473 18.3427 79.3107 18.9927 79.744 19.79C80.1947 20.57 80.472 21.506 80.576 22.598H76.936C76.7453 21.714 76.2947 21.012 75.584 20.492C74.8733 19.972 73.9633 19.712 72.854 19.712C71.97 19.712 71.2073 19.8767 70.566 20.206C69.942 20.518 69.422 20.9513 69.006 21.506C68.6073 22.0607 68.304 22.7107 68.096 23.456C67.9053 24.184 67.81 24.9467 67.81 25.744ZM96.4634 16.592V19.946H87.0774V24.236H95.2674V27.59H87.0774V31.672H96.4634V35H83.3074V16.592H96.4634ZM103.124 35H99.3543V16.592H103.124V35ZM110.766 31.672H119.788V35H107.022V16.592H110.766V31.672ZM126.23 35H122.46V16.592H126.23V35ZM133.742 16.592L142.478 28.916V16.592H146.17V35H142.556L133.82 22.728V35H130.128V16.592H133.742ZM152.945 25.77C152.945 26.5673 153.041 27.33 153.231 28.058C153.439 28.7687 153.751 29.4013 154.167 29.956C154.583 30.4933 155.112 30.9267 155.753 31.256C156.395 31.5853 157.157 31.7587 158.041 31.776C158.579 31.7933 159.099 31.7327 159.601 31.594C160.121 31.4553 160.581 31.2473 160.979 30.97C161.378 30.6753 161.699 30.3027 161.941 29.852C162.201 29.4013 162.357 28.8727 162.409 28.266H157.781V25.224H166.101C166.119 25.8827 166.11 26.5587 166.075 27.252C166.041 27.9453 165.945 28.6213 165.789 29.28C165.651 29.9387 165.434 30.58 165.139 31.204C164.862 31.8107 164.489 32.3567 164.021 32.842C163.363 33.5353 162.539 34.0987 161.551 34.532C160.563 34.948 159.376 35.156 157.989 35.156C156.551 35.156 155.268 34.9307 154.141 34.48C153.032 34.012 152.096 33.362 151.333 32.53C150.588 31.698 150.016 30.71 149.617 29.566C149.236 28.422 149.045 27.1653 149.045 25.796C149.045 24.392 149.236 23.1093 149.617 21.948C150.016 20.7867 150.597 19.7987 151.359 18.984C152.122 18.152 153.058 17.5107 154.167 17.06C155.294 16.592 156.577 16.358 158.015 16.358C159.003 16.358 159.948 16.488 160.849 16.748C161.751 17.008 162.548 17.398 163.241 17.918C163.935 18.438 164.507 19.088 164.957 19.868C165.408 20.648 165.677 21.558 165.763 22.598H162.123C161.95 21.714 161.465 21.0033 160.667 20.466C159.887 19.9287 158.951 19.6773 157.859 19.712C156.993 19.7467 156.247 19.9373 155.623 20.284C154.999 20.6133 154.488 21.0553 154.089 21.61C153.691 22.1647 153.396 22.806 153.205 23.534C153.032 24.2447 152.945 24.99 152.945 25.77Z" fill="#0188CC"/>
<path fill-rule="evenodd" clip-rule="evenodd" d="M50 0H0V50.1918H8V18.0307C8 12.5078 12.4772 8.03068 18 8.03068H50V0ZM50 13.0307H18C15.2386 13.0307 13 15.2693 13 18.0307V50.1918H50V13.0307Z" fill="#0188CC"/>
<path d="M13 18.0498C13 15.2884 15.2386 13.0498 18 13.0498H50V50.1917H13V18.0498Z" fill="#F9B000"/>
<line x1="63" y1="38.75" x2="170" y2="38.75" stroke="white" stroke-opacity="0.4" stroke-width="0.5"/>
</svg>
